#!OML:ASF Y:\EmotionMaleHayes\Project 1\Capture day 1\Session 1\Male1.ASF
:FULLY-SPECIFIED
:DEGREES
1230
root 46.1092 16.7386 -11.8661 542.576 -35.8514 528.911
lowerback 7.01048 0.0853845 -14.5718
upperback 0.59475 -1.3147 -2.10553
thorax -3.07703 -0.566633 6.06713
lowerneck -9.97626 17.0703 19.6151
upperneck 21.6421 22.878 -12.4269
head 12.6036 10.6536 -3.86791
rclavicle 1.55068e-014 6.26172e-014
rhumerus -56.4363 -8.88639 -67.9549
rradius 30.9737
rwrist 2.35445
rhand -6.64442 -32.899
rfingers 7.12502
rthumb 19.2128 -61.97
lclavicle 1.55068e-014 6.26172e-014
lhumerus -18.4535 -30.9237 93.2562
lradius 47.2459
lwrist 3.65641
lhand -11.6019 -24.0582
lfingers 7.12502
lthumb 14.4406 5.41941
rfemur -22.9529 5.07728 1.70041
rtibia 15.5196
rfoot -10.9265 8.0877
rtoes -5.56126
lfemur 17.3758 0.872543 -38.0619
ltibia 5.89945
lfoot -16.6248 -6.60039
ltoes 8.09246
1231
root 46.0629 16.7268 -11.9526 542.816 -36.5936 528.736
lowerback 6.94918 0.0675852 -14.293
upperback 0.722104 -1.31159 -2.31422
thorax -2.91815 -0.591494 5.68839
lowerneck -10.1836 16.9909 19.8818
upperneck 21.6593 22.7167 -12.5507
head 12.6768 10.5824 -3.96713
rclavicle 8.02624e-014 4.37326e-014
rhumerus -56.6201 -9.77343 -67.5579
rradius 31.0563
rwrist 2.80772
rhand -6.55918 -32.9785
rfingers 7.12502
rthumb 19.2947 -62.0413
lclavicle 8.02624e-014 4.37326e-014
lhumerus -18.6413 -31.7628 93.2162
lradius 47.4786
lwrist 3.79222
lhand -11.5212 -24.0654
lfingers 7.12502
lthumb 14.5183 5.40658
rfemur -22.9488 5.09997 1.69775
rtibia 14.2148
rfoot -10.8416 9.06703
rtoes -5.48103
lfemur 17.3694 1.01873 -37.7519
ltibia 6.68372
lfoot -17.01 -7.90636
ltoes 10.413
1232
root 46.0111 16.7091 -12.0404 543.053 -37.2613 528.674
lowerback 6.45252 0.0527299 -13.7938
upperback 1.07838 -1.19512 -2.57366
thorax -2.29736 -0.603048 5.11655
lowerneck -10.5817 16.9746 19.9038
upperneck 21.4121 22.57 -12.4005
head 12.6072 10.532 -3.9166
rclavicle -1.67103e-015 -6.83819e-014
rhumerus -56.4638 -10.8764 -67.2897
rradius 31.0229
rwrist 3.26264
rhand -6.39498 -32.7837
rfingers 7.12502
rthumb 19.4526 -61.8307
lclavicle -1.67103e-015 -6.83819e-014
lhumerus -18.5069 -32.699 92.9284
lradius 47.7542
lwrist 4.10563
lhand -11.6167 -23.8389
lfingers 7.12502
lthumb 14.4264 5.63971
rfemur -23.0934 4.96299 1.8615
rtibia 13.2051
rfoot -10.7754 10.0607
rtoes -5.18983
lfemur 17.895 -0.566392 -38.4644
ltibia 6.30468
lfoot -16.9884 -6.66091
ltoes 10.0452
1233
root 45.9532 16.6934 -12.129 543.126 -37.9273 528.544
lowerback 6.55827 -0.00439427 -13.5928
upperback 1.14655 -1.27132 -2.62511
thorax -2.27535 -0.647376 4.95881
lowerneck -10.5493 16.9436 19.7341
upperneck 21.4135 22.5359 -12.2988
head 12.5569 10.5174 -3.86994
rclavicle -2.96624e-014 -1.74931e-014
rhumerus -56.5797 -11.1297 -66.9691
rradius 31.0306
rwrist 3.46737
rhand -6.37132 -32.5045
rfingers 7.12502
rthumb 19.4754 -61.5492
lclavicle -2.96624e-014 -1.74931e-014
lhumerus -19.0151 -32.7936 93.1632
lradius 47.9718
lwrist 4.10867
lhand -11.5027 -23.8455
lfingers 7.12502
lthumb 14.5362 5.62527
rfemur -22.9842 4.6291 2.01347
rtibia 12.3958
rfoot -10.8365 11.2553
rtoes -4.85429
lfemur 17.8601 0.321565 -37.7921
ltibia 7.47759
lfoot -17.4152 -8.43739
ltoes 12.2635
1234
root 45.8897 16.6749 -12.2198 543.356 -38.5797 528.369
lowerback 6.41168 -0.108723 -13.699
upperback 1.21426 -1.3679 -2.44575
thorax -2.09419 -0.70332 5.21023
lowerneck -10.4124 17.0734 19.8708
upperneck 21.3687 22.8022 -12.579
head 12.6222 10.6231 -3.93463
rclavicle 1.3426e-013 4.57205e-014
rhumerus -56.5171 -10.926 -66.5504
rradius 31.1297
rwrist 3.43046
rhand -6.60536 -32.5825
rfingers 7.12502
rthumb 19.2503 -61.6497
lclavicle 1.3426e-013 4.57205e-014
lhumerus -19.4013 -32.7164 93.6231
lradius 48.0294
lwrist 4.1059
lhand -11.3034 -23.9904
lfingers 7.12502
lthumb 14.7282 5.46635
rfemur -23.0327 4.30283 2.0824
rtibia 11.9114
rfoot -10.7423 12.3732
rtoes -3.66051
lfemur 18.5885 -1.34585 -38.8581
ltibia 6.93167
lfoot -17.6461 -6.28498
ltoes 7.40424
